<?xml version="1.0" encoding="UTF-8"?>
<!DOCTYPE svg PUBLIC "-//W3C//DTD SVG 1.1//EN" "http://www.w3.org/Graphics/SVG/1.1/DTD/svg11.dtd">
<svg xmlns="http://www.w3.org/2000/svg" version="1.1" width="1920px" height="1080px" style="shape-rendering:geometricPrecision; text-rendering:geometricPrecision; image-rendering:optimizeQuality; fill-rule:evenodd; clip-rule:evenodd" xmlns:xlink="http://www.w3.org/1999/xlink">
<g><path style="opacity:1" fill="#fefffe" d="M -0.5,-0.5 C 639.5,-0.5 1279.5,-0.5 1919.5,-0.5C 1919.5,359.5 1919.5,719.5 1919.5,1079.5C 1279.5,1079.5 639.5,1079.5 -0.5,1079.5C -0.5,719.5 -0.5,359.5 -0.5,-0.5 Z M 1345.5,125.5 C 1386.83,125.333 1428.17,125.5 1469.5,126C 1517.07,126.762 1564.4,130.428 1611.5,137C 1654.43,147.264 1683.6,173.098 1699,214.5C 1712.36,252.015 1718.02,290.681 1716,330.5C 1712.83,333.667 1709.67,336.833 1706.5,340C 1653.17,340.667 1599.83,340.667 1546.5,340C 1543.33,336.833 1540.17,333.667 1537,330.5C 1537.22,318.132 1534.55,306.465 1529,295.5C 1524.12,289.624 1517.95,285.791 1510.5,284C 1502.29,281.909 1493.96,280.576 1485.5,280C 1418.17,278.275 1350.84,278.275 1283.5,280C 1268.86,280.495 1254.53,282.829 1240.5,287C 1229.62,289.882 1221.79,296.382 1217,306.5C 1210.37,326.267 1206.7,346.6 1206,367.5C 1203.81,400.89 1204.48,434.224 1208,467.5C 1209.39,479.791 1212.06,491.791 1216,503.5C 1219.43,514.599 1226.6,522.099 1237.5,526C 1255.3,532.21 1273.63,535.543 1292.5,536C 1323.34,536.742 1354.17,537.575 1385,538.5C 1419.52,538.013 1454.02,537.179 1488.5,536C 1501.2,535.1 1513.2,531.767 1524.5,526C 1530.83,520.519 1534.99,513.686 1537,505.5C 1539.43,493.964 1540.76,482.297 1541,470.5C 1544.17,467.333 1547.33,464.167 1550.5,461C 1607.83,460.5 1665.17,460.333 1722.5,460.5C 1725.08,501.164 1722.58,541.498 1715,581.5C 1709.86,609.625 1697.03,633.458 1676.5,653C 1661.45,664.191 1644.78,672.191 1626.5,677C 1596.64,684.524 1566.31,688.524 1535.5,689C 1429.82,692.58 1324.15,692.247 1218.5,688C 1185.9,686.2 1153.9,680.867 1122.5,672C 1077.63,658.474 1048.13,629.307 1034,584.5C 1028.73,567.547 1025.4,550.213 1024,532.5C 1022.39,492.831 1020.72,453.164 1019,413.5C 1017.1,369.548 1019.76,325.881 1027,282.5C 1031.95,253.646 1041.28,226.313 1055,200.5C 1075.02,168.519 1103.52,148.019 1140.5,139C 1159.53,134.051 1178.86,131.051 1198.5,130C 1247.67,128.742 1296.67,127.242 1345.5,125.5 Z M 196.5,129.5 C 374.167,129.333 551.834,129.5 729.5,130C 757.569,131.28 784.569,137.28 810.5,148C 849.656,166.407 872.156,197.24 878,240.5C 882.853,276.252 880.853,311.585 872,346.5C 865.67,364.157 854.837,378.323 839.5,389C 833.764,393.064 827.764,396.73 821.5,400C 840.786,404.976 858.119,413.643 873.5,426C 889.593,444.374 898.427,465.874 900,490.5C 903.826,526.77 900.826,562.437 891,597.5C 880.69,629.477 860.19,652.31 829.5,666C 805.15,676.087 779.817,682.087 753.5,684C 567.847,685.651 382.181,685.984 196.5,685C 193.333,681.833 190.167,678.667 187,675.5C 186.333,496.833 186.333,318.167 187,139.5C 190.371,136.297 193.538,132.964 196.5,129.5 Z M 222.5,744.5 C 245.86,744.112 269.194,744.612 292.5,746C 302.975,748.812 308.808,755.645 310,766.5C 310.27,770.373 310.77,774.206 311.5,778C 311.355,778.772 311.022,779.439 310.5,780C 300.5,780.667 290.5,780.667 280.5,780C 280.351,773.52 277.018,770.52 270.5,771C 257.462,770.147 244.462,770.48 231.5,772C 229.671,772.273 228.171,773.107 227,774.5C 223.708,785.506 223.708,796.506 227,807.5C 228.558,809.768 230.724,810.934 233.5,811C 245.145,812.272 256.812,812.605 268.5,812C 277.017,812.481 281.351,808.481 281.5,800C 291.517,799.168 301.517,799.334 311.5,800.5C 312.864,810.578 311.364,820.245 307,829.5C 301.282,834.855 294.449,837.688 286.5,838C 265.5,838.667 244.5,838.667 223.5,838C 202.335,837.502 192.169,826.668 193,805.5C 191.892,792.055 192.559,778.722 195,765.5C 198.948,751.614 208.115,744.614 222.5,744.5 Z M 362.5,744.5 C 384.503,744.333 406.503,744.5 428.5,745C 436.068,745.745 443.068,748.078 449.5,752C 453.423,755.677 455.923,760.177 457,765.5C 459.963,780.426 460.296,795.426 458,810.5C 457.198,816.905 455.198,822.905 452,828.5C 443.792,835.236 434.292,838.403 423.5,838C 402.833,838.667 382.167,838.667 361.5,838C 345.532,837.627 335.699,829.793 332,814.5C 331.333,800.833 331.333,787.167 332,773.5C 333.274,754.391 343.441,744.724 362.5,744.5 Z M 480.5,744.5 C 496.17,744.333 511.837,744.5 527.5,745C 537.873,763.581 548.373,782.081 559,800.5C 569.294,782.08 579.46,763.58 589.5,745C 605.167,744.333 620.833,744.333 636.5,745C 637.662,775.762 637.829,806.595 637,837.5C 627,838.833 617,838.833 607,837.5C 606.667,817.5 606.333,797.5 606,777.5C 594.753,797.663 583.253,817.663 571.5,837.5C 562.607,838.816 553.774,838.816 545,837.5C 533.414,817.997 522.081,798.33 511,778.5C 510.667,798.167 510.333,817.833 510,837.5C 500.244,838.651 490.411,838.818 480.5,838C 479.17,806.833 479.17,775.667 480.5,744.5 Z M 660.5,744.5 C 689.835,744.333 719.169,744.5 748.5,745C 763.233,746.068 771.4,753.901 773,768.5C 774.294,780.066 773.294,791.4 770,802.5C 766.329,810.259 760.162,814.426 751.5,815C 731.503,815.5 711.503,815.667 691.5,815.5C 691.814,823.087 691.481,830.587 690.5,838C 680.256,838.819 670.09,838.652 660,837.5C 659.175,806.428 659.342,775.428 660.5,744.5 Z M 821.5,744.5 C 843.503,744.333 865.503,744.5 887.5,745C 895.068,745.745 902.068,748.078 908.5,752C 912.423,755.677 914.923,760.177 916,765.5C 918.963,780.426 919.296,795.426 917,810.5C 916.198,816.905 914.198,822.905 911,828.5C 902.792,835.236 893.292,838.403 882.5,838C 861.833,838.667 841.167,838.667 820.5,838C 804.532,837.627 794.699,829.793 791,814.5C 790.333,800.833 790.333,787.167 791,773.5C 792.274,754.391 802.441,744.724 821.5,744.5 Z M 939.5,744.5 C 955.17,744.333 970.837,744.5 986.5,745C 1003,765.5 1019.5,786 1036,806.5C 1036.33,786.167 1036.67,765.833 1037,745.5C 1046.76,744.349 1056.59,744.182 1066.5,745C 1067.66,775.762 1067.83,806.595 1067,837.5C 1051.24,838.657 1035.41,838.824 1019.5,838C 1003,817.5 986.5,797 970,776.5C 969.667,796.833 969.333,817.167 969,837.5C 959.244,838.651 949.411,838.818 939.5,838C 938.17,806.833 938.17,775.667 939.5,744.5 Z M 1089.5,744.5 C 1124.17,744.333 1158.83,744.5 1193.5,745C 1194.83,753 1194.83,761 1193.5,769C 1169.17,769.5 1144.84,769.667 1120.5,769.5C 1120.5,772.833 1120.5,776.167 1120.5,779.5C 1143.17,779.333 1165.84,779.5 1188.5,780C 1189.83,787 1189.83,794 1188.5,801C 1165.84,801.5 1143.17,801.667 1120.5,801.5C 1120.5,805.833 1120.5,810.167 1120.5,814.5C 1145.07,814.172 1169.57,814.506 1194,815.5C 1194.81,823.08 1194.65,830.58 1193.5,838C 1158.83,838.667 1124.17,838.667 1089.5,838C 1088.17,806.833 1088.17,775.667 1089.5,744.5 Z M 1214.5,744.5 C 1230.17,744.333 1245.84,744.5 1261.5,745C 1278,765.5 1294.5,786 1311,806.5C 1311.33,786.167 1311.67,765.833 1312,745.5C 1321.76,744.349 1331.59,744.182 1341.5,745C 1342.66,775.762 1342.83,806.595 1342,837.5C 1326.24,838.657 1310.41,838.824 1294.5,838C 1278,817.5 1261.5,797 1245,776.5C 1244.67,796.833 1244.33,817.167 1244,837.5C 1234.24,838.651 1224.41,838.818 1214.5,838C 1213.17,806.833 1213.17,775.667 1214.5,744.5 Z M 1356.5,744.5 C 1393.5,744.333 1430.5,744.5 1467.5,745C 1468.83,753.333 1468.83,761.667 1467.5,770C 1454.17,770.5 1440.84,770.667 1427.5,770.5C 1427.67,792.836 1427.5,815.169 1427,837.5C 1416.67,838.833 1406.33,838.833 1396,837.5C 1395.5,815.169 1395.33,792.836 1395.5,770.5C 1382.5,770.667 1369.5,770.5 1356.5,770C 1355.18,761.5 1355.18,753 1356.5,744.5 Z M 1483.5,744.5 C 1518.17,744.333 1552.83,744.5 1587.5,745C 1588.83,753 1588.83,761 1587.5,769C 1563.17,769.5 1538.84,769.667 1514.5,769.5C 1514.5,772.833 1514.5,776.167 1514.5,779.5C 1537.17,779.333 1559.84,779.5 1582.5,780C 1583.83,787 1583.83,794 1582.5,801C 1559.84,801.5 1537.17,801.667 1514.5,801.5C 1514.5,805.833 1514.5,810.167 1514.5,814.5C 1539.07,814.172 1563.57,814.506 1588,815.5C 1588.81,823.08 1588.65,830.58 1587.5,838C 1552.83,838.667 1518.17,838.667 1483.5,838C 1482.17,806.833 1482.17,775.667 1483.5,744.5 Z M 1636.5,744.5 C 1656.17,744.333 1675.84,744.5 1695.5,745C 1713.63,747.576 1720.96,757.909 1717.5,776C 1707.83,776.667 1698.17,776.667 1688.5,776C 1687.89,773.49 1686.56,771.49 1684.5,770C 1679.72,769.011 1674.89,768.511 1670,768.5C 1660.17,769.017 1650.33,769.517 1640.5,770C 1636.5,772.333 1636.5,774.667 1640.5,777C 1659.82,778.1 1679.15,778.767 1698.5,779C 1715.89,780.746 1723.89,790.413 1722.5,808C 1722.97,815.276 1721.47,822.109 1718,828.5C 1714.58,832.257 1710.41,834.757 1705.5,836C 1699.23,837.152 1692.9,837.818 1686.5,838C 1666.83,838.667 1647.17,838.667 1627.5,838C 1614.57,837.728 1607.4,831.228 1606,818.5C 1605.33,814.5 1605.33,810.5 1606,806.5C 1616.42,805.513 1626.92,805.18 1637.5,805.5C 1637.24,807.792 1637.58,809.959 1638.5,812C 1641.38,813.127 1644.38,813.794 1647.5,814C 1660.51,814.366 1673.51,814.033 1686.5,813C 1691.37,810.523 1691.7,807.523 1687.5,804C 1686.17,803.667 1684.83,803.333 1683.5,803C 1662.81,802.823 1642.15,802.156 1621.5,801C 1612.59,799.085 1607.42,793.585 1606,784.5C 1605.33,777.5 1605.33,770.5 1606,763.5C 1607.45,756.074 1611.62,750.907 1618.5,748C 1624.58,746.503 1630.58,745.336 1636.5,744.5 Z"/></g>
<g><path style="opacity:1" fill="#fefffe" d="M 371.5,268.5 C 468.518,268.026 565.518,268.526 662.5,270C 672.57,270.575 681.404,274.075 689,280.5C 696.455,296.431 695.955,312.098 687.5,327.5C 679.476,333.262 670.476,336.428 660.5,337C 564.183,338.471 467.85,338.971 371.5,338.5C 371.5,315.167 371.5,291.833 371.5,268.5 Z"/></g>
<g><path style="opacity:1" fill="#fefffe" d="M 371.5,466.5 C 474.183,466.027 576.85,466.527 679.5,468C 688.823,468.664 697.49,471.331 705.5,476C 713.074,483.551 716.408,492.717 715.5,503.5C 715.747,512.951 713.913,521.951 710,530.5C 708.127,532.709 705.96,534.542 703.5,536C 695.322,538.419 686.989,540.085 678.5,541C 576.181,542.468 473.848,542.968 371.5,542.5C 371.5,517.167 371.5,491.833 371.5,466.5 Z"/></g>
<g><path style="opacity:1" fill="#fefffe" d="M 377.5,770.5 C 389.838,770.333 402.171,770.5 414.5,771C 420.347,770.66 424.181,773.16 426,778.5C 426.947,788.267 426.613,797.934 425,807.5C 424.167,808.333 423.333,809.167 422.5,810C 404.158,813.279 385.825,813.279 367.5,810C 365.226,807.656 364.059,804.822 364,801.5C 363.202,792.787 363.536,784.12 365,775.5C 365.833,774.667 366.667,773.833 367.5,773C 370.952,772.115 374.286,771.282 377.5,770.5 Z"/></g>
<g><path style="opacity:1" fill="#fefffe" d="M 691.5,770.5 C 705.171,770.333 718.837,770.5 732.5,771C 738.712,771.047 741.712,774.214 741.5,780.5C 741.554,786.485 738.554,789.318 732.5,789C 718.837,789.5 705.171,789.667 691.5,789.5C 691.5,783.167 691.5,776.833 691.5,770.5 Z"/></g>
<g><path style="opacity:1" fill="#fefffe" d="M 836.5,770.5 C 848.838,770.333 861.171,770.5 873.5,771C 879.347,770.66 883.181,773.16 885,778.5C 885.947,788.267 885.613,797.934 884,807.5C 883.167,808.333 882.333,809.167 881.5,810C 863.158,813.279 844.825,813.279 826.5,810C 824.226,807.656 823.059,804.822 823,801.5C 822.202,792.787 822.536,784.12 824,775.5C 824.833,774.667 825.667,773.833 826.5,773C 829.952,772.115 833.286,771.282 836.5,770.5 Z"/></g>
</svg>
